# xmcd CD database file
#
# Track frame offsets:
#	150
#	12748
#	31017
#	45826
#	61451
#	74546
#	92004
#	107810
#	124790
#	138188
#
# Disc length: 1978 seconds
#
# Revision: 0
# Processed by: cddbd v1.5.2PL0 Copyright (c) Steve Scherf et al.
# Submitted via: cdripper 1.0.8
#
DISCID=8207b80a
DTITLE=Benji Flaming - Bluegrass Tribute To Audioslave
DYEAR=2006
DGENRE=Country
TTITLE0=Show Me How To Live
TTITLE1=Hypnotize
TTITLE2=Shadow On The Sun
TTITLE3=Exploder
TTITLE4=Gasoline
TTITLE5=Like a Stone
TTITLE6=Dandelion
TTITLE7=Be Yourself
TTITLE8=Cochise
TTITLE9=I Am The Highway
EXTD=YEAR: 2006
EXTT0=
EXTT1=
EXTT2=
EXTT3=
EXTT4=
EXTT5=
EXTT6=
EXTT7=
EXTT8=
EXTT9=
PLAYORDER=
